<?xml version="1.0" standalone="no"?>
<!DOCTYPE svg PUBLIC "-//W3C//DTD SVG 20010904//EN"
 "http://www.w3.org/TR/2001/REC-SVG-20010904/DTD/svg10.dtd">
<svg version="1.0" xmlns="http://www.w3.org/2000/svg"
 width="640.000000pt" height="640.000000pt" viewBox="0 0 640.000000 640.000000"
 preserveAspectRatio="xMidYMid meet">
<metadata>
Created by potrace 1.14, written by Peter Selinger 2001-2017
</metadata>
<g transform="translate(0.000000,640.000000) scale(0.100000,-0.100000)"
fill="#000000" stroke="none">
<path d="M3115 5726 c-160 -46 -252 -171 -240 -331 8 -113 71 -200 186 -259
l64 -33 3 -266 c1 -147 -1 -268 -5 -268 -19 -3 -51 -8 -98 -14 -111 -13 -290
-58 -365 -92 -114 -50 -298 -156 -320 -183 -3 -3 -16 -14 -29 -23 -83 -56
-262 -264 -328 -380 -79 -140 -142 -311 -169 -460 -32 -181 -20 -426 31 -622
46 -176 141 -356 276 -521 l58 -71 -190 -189 -189 -188 -32 13 c-97 38 -139
45 -202 32 -136 -28 -224 -116 -256 -257 -23 -102 28 -227 121 -297 155 -118
375 -68 467 106 24 46 27 63 27 142 -1 74 -5 98 -24 134 l-23 44 188 188 c104
104 192 189 196 189 4 0 42 -27 85 -59 76 -58 171 -116 243 -147 107 -48 140
-61 165 -67 11 -3 44 -12 74 -21 226 -63 521 -58 758 14 131 40 324 133 377
182 11 10 23 18 27 18 5 0 34 21 65 46 l57 46 195 -195 c184 -185 195 -197
184 -219 -20 -38 -42 -121 -42 -159 0 -199 209 -353 401 -295 104 32 173 99
208 204 31 91 25 158 -24 251 -18 35 -82 98 -119 118 -41 21 -116 43 -151 42
-39 0 -111 -20 -151 -41 l-30 -17 -192 192 c-106 106 -192 198 -192 204 0 7 6
16 14 20 8 4 46 51 85 103 70 93 191 315 191 351 0 10 4 20 9 23 5 3 11 18 14
33 3 16 12 55 20 88 34 134 40 186 39 335 0 179 -21 315 -72 460 -23 66 -115
260 -128 270 -4 3 -16 20 -26 39 -21 38 -26 45 -107 140 -146 173 -364 325
-564 396 -27 9 -59 21 -70 25 -11 5 -31 11 -45 14 -14 2 -54 11 -90 19 -36 8
-97 18 -136 22 -39 4 -76 10 -82 14 -9 5 -12 77 -10 275 l3 269 48 15 c65 21
136 86 171 158 25 50 29 71 29 139 0 66 -5 89 -25 130 -45 88 -121 148 -217
171 -65 15 -82 15 -136 0z m312 -1976 c291 -101 464 -405 397 -697 -51 -226
-230 -405 -459 -459 -89 -20 -214 -14 -309 16 -77 24 -79 26 -123 90 -99 146
-143 293 -143 478 1 196 43 334 151 493 35 52 42 57 106 77 97 30 107 31 218
27 68 -2 119 -10 162 -25z"/>
</g>
</svg>
